<svg width="16" height="17" viewBox="0 0 16 17" fill="none" xmlns="http://www.w3.org/2000/svg">
<path d="M2.02286 0.992188C3.10396 0.992188 3.9534 1.84163 3.9534 2.84551C3.9534 3.92661 3.10396 4.77605 2.02286 4.77605C0.941755 4.77605 0.0923157 3.92661 0.0923157 2.84551C0.169537 1.84163 0.941755 0.992188 2.02286 0.992188ZM0.401203 6.24327H3.64452V16.7454H0.401203V6.24327Z" fill="#1622DA"/>
<path d="M5.72951 6.24338H8.8956V7.7106H8.97282C9.43615 6.86116 10.44 6.01172 12.0617 6.01172C15.3822 6.01172 16 8.17393 16 11.0311V16.8228H12.7567V11.7261C12.7567 10.4906 12.7567 8.94615 11.0578 8.94615C9.35893 8.94615 9.12727 10.2589 9.12727 11.6489V16.8228H5.88395V6.24338H5.72951Z" fill="#1622DA"/>
</svg>
