<svg width="20" height="20" viewBox="0 0 20 20" fill="none" xmlns="http://www.w3.org/2000/svg">
<path d="M18.5847 12.6898C18.5847 12.6921 18.5824 12.6944 18.5824 12.6967C18.1623 14.0284 17.423 15.2822 16.3645 16.3388C14.6127 18.0877 12.3214 18.9633 10.0254 18.9702C10.0071 18.9702 9.99099 18.9702 9.97492 18.9702C7.67898 18.9633 5.38762 18.0854 3.63582 16.3388C2.57739 15.2822 1.83809 14.0284 1.41793 12.6967C1.41793 12.6944 1.41564 12.6921 1.41564 12.6898C1.25033 12.1672 1.13553 11.6354 1.06895 11.0968C0.997776 10.5283 0.981704 9.95759 1.02074 9.38686C1.02303 9.35706 1.02533 9.32956 1.02762 9.30205C1.0414 9.13243 1.05977 8.96052 1.08043 8.79091C1.10339 8.62129 1.13094 8.45167 1.16308 8.28206C1.22737 7.94512 1.31232 7.61047 1.41564 7.2804C1.8358 5.94639 2.57739 4.69031 3.63582 3.63135C5.38762 1.88247 7.67898 1.00688 9.97492 1C9.99329 1 10.0094 1 10.0254 1C12.3214 1.00688 14.6127 1.88247 16.3645 3.63135C17.4253 4.68802 18.1646 5.94639 18.5847 7.2804C18.5847 7.28269 18.587 7.28499 18.587 7.28728C19.138 9.04304 19.138 10.934 18.5847 12.6898Z" stroke="#1622DA" stroke-width="1.30104" stroke-miterlimit="10"/>
<path d="M9.97491 18.9702C8.35397 17.1319 7.31391 14.9613 6.85472 12.6967C6.85472 12.6944 6.85472 12.6921 6.85242 12.6898C6.49196 10.9088 6.49196 9.06825 6.85013 7.28728C6.85013 7.28499 6.85013 7.28269 6.85242 7.2804C7.31161 5.0135 8.35168 2.84057 9.97491 1" stroke="#1622DA" stroke-width="1.30104" stroke-miterlimit="10"/>
<path d="M1.41333 7.29492H18.587" stroke="#1622DA" stroke-width="1.30104" stroke-miterlimit="10"/>
<path d="M18.587 12.7051H1.41333" stroke="#1622DA" stroke-width="1.30104" stroke-miterlimit="10"/>
<path d="M10.0254 1C11.6487 2.84057 12.6887 5.0135 13.1479 7.2804C13.1479 7.28269 13.1479 7.28499 13.1502 7.28728C13.5084 9.06825 13.5084 10.9088 13.1479 12.6898C13.1479 12.6921 13.1479 12.6944 13.1456 12.6967C12.6864 14.9613 11.6464 17.1319 10.0254 18.9702C10.0163 18.9794 10.0094 18.9885 10.0002 19" stroke="#1622DA" stroke-width="1.30104" stroke-miterlimit="10"/>
</svg>
