<svg xmlns="http://www.w3.org/2000/svg" viewBox="0 0 56.9076 56.4208"><path d="M48.62,36.9509l6.3432-7.4037.0235.0214,1.3979,1.2739a35.0162,35.0162,0,0,1-1.856,8.2058,14.8981,14.8981,0,0,1-4.03,6.4337l-1.7165-.7159-.2562-7.516-.0061-.1817ZM37.4375,52.3636l.0726.0187-.5779,2.2556A28.537,28.537,0,0,1,28.52,55.9208a28.1444,28.1444,0,0,1-5.9136-.6262l-1.1189-2.7609L29.2737,50.33l.1273-.036.2557.0658ZM10.9436,31.5661,8.316,41.0055,3.0114,39.5441A27.321,27.321,0,0,1,.5,28.0236c0-.3014,0-.606.0131-.8962l4.4392-3.5206.0844-.0669,5.7765,7.8.1395.1884ZM20.37,10.5624l-10.1.9715-.0041-.1409-.1273-4.4125A27.9037,27.9037,0,0,1,23.9339.5237l2.7784,1.732-6.1051,8.1849-.08.1067Zm24.4413,2.2L40.1775,4.6559l3.3686-.1677A28.02,28.02,0,0,1,53.34,15.093l-.185,2.671-8.0136-4.73-.2634-.1555Zm-5.7543,8.1442.0273.1363,2.3611,11.781.03.1492L30.7169,39.0215l-.0289.0162-.034-.0309-9.0686-8.2279-.05-.0456.0069-.015,5.1246-11.06.0529-.1142.002,0Z" style="fill:none;stroke:#1622da"/><line x1="20.5276" y1="10.5473" x2="26.6667" y2="19.6586" style="fill:none;stroke:#1622da"/><line x1="39.0841" y1="21.0426" x2="44.8775" y2="12.8783" style="fill:none;stroke:#1622da"/><line x1="41.4751" y1="32.9728" x2="48.5195" y2="37.0684" style="fill:none;stroke:#1622da"/><line x1="30.688" y1="39.0377" x2="29.401" y2="50.2942" style="fill:none;stroke:#1622da"/><line x1="21.5854" y1="30.7789" x2="10.9436" y2="31.5661" style="fill:none;stroke:#1622da"/><path d="M4.9724,23.61A25.9113,25.9113,0,0,1,10.32,11.5736" style="fill:none;stroke:#1622da"/><path d="M22.0372,52.3792A25.3758,25.3758,0,0,1,8.1863,41.0814" style="fill:none;stroke:#1622da"/><path d="M48.8205,44.7991A25.1862,25.1862,0,0,1,37.5191,52.41" style="fill:none;stroke:#1622da"/><path d="M53.0261,17.8174a26.1632,26.1632,0,0,1,1.9951,10.061q0,.8513-.0533,1.689" style="fill:none;stroke:#1622da"/><path d="M26.72,2.3177a24.8979,24.8979,0,0,1,3.1045-.1936A24.6475,24.6475,0,0,1,40.6792,4.63" style="fill:none;stroke:#1622da"/></svg>