<svg width="50" height="50" viewBox="0 0 50 50" fill="none" xmlns="http://www.w3.org/2000/svg">
<path d="M21.0228 0.524126L23.3783 2.03823L18.065 9.21966L18.0092 9.29518L17.9236 9.30346L9.08584 10.1582L9.0847 10.1183L8.97349 6.23352C12.3203 3.31534 16.4635 1.27889 21.0228 0.524126ZM23.5203 17.4437L23.5363 17.409L34.2626 18.6027L34.274 18.6592L36.373 29.0995L36.3916 29.1918L26.9849 34.5237L19.019 27.2374L23.5203 17.4437ZM39.507 11.3932L39.4444 11.2827L35.4283 4.19954L38.2402 4.05841C41.8598 6.34825 44.8162 9.58818 46.8264 13.4114L46.6715 15.6662L39.6901 11.5024L39.507 11.3932ZM42.7167 33.009L42.7121 32.8686L42.7861 32.7818L48.3209 26.2923L49.5016 27.3569C49.277 29.5675 48.7436 32.1977 47.8761 34.586C47.0137 36.9606 45.8449 39.0291 44.3797 40.2393L42.9072 39.62L42.934 39.5771L42.929 39.4248L42.7167 33.009ZM32.8932 46.4593L32.9008 46.4613L32.4142 48.376C30.1057 49.0911 27.6303 49.5 25.0708 49.5C23.3116 49.5 21.5738 49.311 19.9175 48.9534L18.9683 46.592L25.7504 44.6569L25.8456 44.6298L26.0536 44.6838L32.8932 46.4593ZM9.56092 27.9612L7.53925 36.4014L7.47367 36.325L7.3272 36.2843L2.69147 34.9968C1.27415 31.8974 0.5 28.4672 0.5 24.8343C0.5 24.6787 0.505544 24.5157 0.511498 24.3425L0.511645 24.3382C0.514752 24.2477 0.517958 24.1544 0.520265 24.0604L4.39103 20.9882L4.42718 20.9595L9.47976 27.8064L9.56903 27.9273L9.56092 27.9612ZM23.3679 2.27273V2.27277C23.3678 2.26593 23.3679 2.26453 23.3679 2.27273Z" stroke="white"/>
</svg>
