<svg width="37" height="37" viewBox="0 0 37 37" fill="none" xmlns="http://www.w3.org/2000/svg">
<circle cx="18.5" cy="18.5" r="18" stroke="#1622da"/>
<g clip-path="url(#clip0)">
<path d="M12.2549 8C13.5176 8 14.5098 8.99216 14.5098 10.2549C14.5098 11.5176 13.5176 12.5098 12.2549 12.5098C10.9922 12.4196 10 11.4275 10 10.2549C10 8.99216 10.9922 8 12.2549 8ZM10.2706 14.1333H14.0588V26.4H10.2706V14.1333Z" fill="#1622da"/>
<path d="M16.4941 14.1329H20.1922V15.8466H20.2824C20.8236 14.8545 21.9961 13.8623 23.8902 13.8623C27.7687 13.8623 28.4902 16.3878 28.4902 19.725V26.4898H24.702V20.5368C24.702 19.0937 24.702 17.2898 22.7177 17.2898C20.7334 17.2898 20.4628 18.8231 20.4628 20.4466V26.4898H16.4941V14.1329Z" fill="#1622da"/>
</g>
<defs>
<clipPath id="clip0">
<rect x="10" y="8" width="18.4" height="18.4" fill="white"/>
</clipPath>
</defs>
</svg>
