<svg width="206" height="71" viewBox="0 0 206 71" fill="none" xmlns="http://www.w3.org/2000/svg">
<g clip-path="url(#clip0)">
<path d="M106.4 2.59998C108 0.999976 109.9 0.299976 112.2 0.399976C115 0.599976 117.8 0.399976 120.2 0.399976C123.2 4.29998 130.7 21.9 132 27.8C127.9 29 123.6 28.5 119.5 28.2C118.5 28.1 117.2 26.8 116.6 25.8C115.6 24.2 114.9 22.3 114.1 20.4C115.2 18.4 117.1 16.6 114.4 14.1C113.2 16.9 112.2 19.6 111.1 22.3C108.7 28.2 108 28.7 101.5 28.5C100.4 28.5 99.3 28.3 97.6 28.1C97.6 26.7 97.6 25.4 97.6 24.2C98.2 22.6 98.9 21.1 99.5 19.5C101.8 13.8 104.1 8.19998 106.4 2.59998Z" fill="#1622DA"/>
<path d="M99.5 19.5001C98.9 21.1001 98.2 22.6001 97.6 24.2001C94.1 28.9001 90.8 29.8001 84.1 27.4001C84.6 25.4001 85.1 23.4001 85.6 21.4001C88 16.0001 90.4 10.6001 92.7 5.20014C94.7 0.600139 101.5 -1.49986 105.9 1.20014C106.2 1.40014 106.3 2.10014 106.5 2.50014C104.1 8.20014 101.8 13.8001 99.5 19.5001Z" fill="#1622DA"/>
<path d="M85.6 21.3C85.3 21.7 84.9 22 84.7 22.4C81.1 29.1 79.8 29.6 71.1 27.5C71.4 26.2 71.6 24.8 72.1 23.5C74.4 17.7 76.8 11.9 79.2 6.19997C81.8 -3.00407e-05 85.4 -1.30003 92.7 1.69997C90.3 8.19997 87.9 14.8 85.6 21.3Z" fill="#1622DA"/>
<path d="M204.7 32.6002C204.8 33.4002 205.2 34.3002 205 34.9002C203.5 40.6002 201.9 46.3002 200.3 52.1002C199.9 53.7002 199.1 55.1002 197.3 54.7002C196.3 54.5002 195.3 53.1002 194.9 52.0002C194 49.0002 193.5 45.9002 192.8 42.9002C192.6 42.0002 192.2 41.1002 191.8 39.8002C189.4 44.8002 190 50.3002 187.3 54.4002C184.5 54.9002 183.5 53.6002 183 51.9002C181.5 46.2002 180.2 40.4002 178.9 34.6002C178.8 34.0002 179.3 33.2002 179.7 32.2002C183.7 33.2002 182.9 36.5002 183.6 38.9002C184.3 41.4002 184.9 43.9002 186.5 46.4002C187.2 43.6002 187.8 40.9002 188.5 38.1002C188.8 37.0002 188.8 35.7002 189.4 34.8002C190 33.8002 191.3 32.6002 192.2 32.6002C193.1 32.6002 194.5 34.0002 194.8 35.0002C195.8 38.8002 196.5 42.7002 197.2 46.6002C197.3 47.0002 197.4 47.4002 197.7 48.6002C198.9 44.0002 199.8 40.2002 200.7 36.4002C201.3 34.5002 201.8 32.7002 204.7 32.6002Z" fill="#1622DA"/>
<path d="M0 55.1999C0 47.1999 0 40.0999 0 32.9999C4.1 32.7999 4.7 32.9999 5.8 36.1999C7.1 39.8999 8.1 43.5999 10.2 47.3999C11.4 43.5999 12.6 39.6999 13.8 35.8999C14.9 32.4999 15.8 32.0999 19.6 33.1999C20.6 39.0999 20.3 51.2999 19.1 54.5999C16.8 55.0999 16.7 53.4999 16.6 51.9999C16.6 48.1999 16.6 44.3999 16.6 39.7999C13.7 44.9999 13.7 50.5999 10.5 54.7999C6.8 54.0999 7.1 50.8999 6.2 48.6999C5.2 46.2999 4.5 43.7999 3.1 41.3999C3.1 43.7999 3.2 46.1999 3.1 48.4999C2.9 50.7999 4 53.4999 0 55.1999Z" fill="#1622DA"/>
<path d="M99.4 42.7001C100.2 43.7001 100.8 44.6001 101.5 45.6001C102.3 44.0001 103 42.7001 103.9 41.0001C106.9 44.0001 105.2 46.9001 105.1 49.8001C105.8 51.2001 106.5 52.7001 107.8 55.3001C105.3 54.5001 103.8 54.1001 102.3 53.6001C97.1 56.0001 92.6 55.5001 90.3 52.3001C88.3 49.5001 89.1 46.1001 92.8 41.8001C90.7 36.2001 90.8 34.6001 93.4 33.0001C95.9 31.4001 99.4 31.7001 101.2 33.7001C103.9 37.1001 101.3 39.6001 99.4 42.7001ZM92.9 48.4001C95.6 52.6001 96.8 52.9001 100.3 49.9001C98.9 48.2001 97.4 46.5001 95.6 44.4001C94.5 46.0001 93.6 47.3001 92.9 48.4001ZM94.4 36.7001C95.4 38.0001 96.1 38.9001 97.5 40.7001C97.9 38.4001 98.1 37.2001 98.4 35.2001C96.7 35.8001 95.8 36.1001 94.4 36.7001Z" fill="#1622DA"/>
<path d="M161.5 54.2C158.7 55.8 157.3 54.7 156.3 52.6C154.9 49.6 153.5 46.6 152.1 43.7C151.4 42.2 150.7 40.8 149.1 39.4C149.1 44.2 149.1 49.1 149.1 53.9C149.1 54.1 148.6 54.3 148.3 54.6C146.6 54.6 146.2 53.3 146.2 52C146.2 45.9 146.2 39.8 146.2 33.9C149.7 32.1 150.3 32.1 151.6 34.6C153 37.2 154.1 40 155.4 42.6C156.1 44.1 156.8 45.5 157.8 47.8C158.9 42.3 157.3 37.2 159.1 32.6C159.6 32.6 160 32.6 160.5 32.5C160.9 33.4 161.5 34.3 161.5 35.3C161.5 41.6 161.5 47.8 161.5 54.2Z" fill="#1622DA"/>
<path d="M141 40.0999C139.2 38.2999 138.1 36.9999 136.9 35.7999C133 35.7999 132.6 35.9999 132.4 39.0999C132.2 41.8999 132.3 44.6999 132.4 47.4999C132.6 51.5999 133.5 52.1999 138.4 51.1999C138.6 50.4999 138.9 49.7999 138.9 48.9999C139 48.1999 138.8 47.3999 138.8 46.3999C137.5 45.6999 136.3 44.9999 135.1 44.2999C137.5 41.4999 137.8 41.4999 142.1 43.5999C142.1 46.6999 142.1 49.8999 142.1 53.0999C140 54.8999 137.6 55.2999 135.1 55.0999C131.2 54.8999 128.8 52.9999 128.4 49.0999C128.1 45.2999 128.1 41.4999 128.4 37.7999C128.6 35.1999 130.2 33.1999 132.9 32.4999C135.7 31.6999 138.5 31.6999 140.8 33.8999C142.3 35.3999 143 37.0999 141 40.0999Z" fill="#1622DA"/>
<path d="M54.1 55.1002C49.1 53.5002 51.7 48.8002 49.6 45.7002C48.5 45.6002 47.1 45.4002 45.4 45.2002C45.1 48.6002 44.8 51.5002 44.5 54.5002C44.1 54.6002 43.8 54.7002 43.4 54.8002C42.8 54.0002 41.7 53.3002 41.7 52.5002C41.6 46.1002 41.6 39.7002 41.6 33.0002C46 32.0002 50 31.3002 53.3 34.3002C56.4 37.1002 54.9 40.3002 53 43.2002C54.8 46.9002 55.6 50.6002 54.1 55.1002ZM51.2 39.6002C49.9 35.8002 49.6 35.7002 45 37.2002C45.2 38.5002 45.3 39.9002 45.5 41.2002C48.1 42.3002 49.8 41.5002 51.2 39.6002Z" fill="#1622DA"/>
<path d="M127.2 53.9002C123.7 54.8002 123.7 54.8002 121.8 50.7002C119.4 49.1002 116.9 49.1002 114.5 50.4002C113.4 52.1002 112.5 53.6002 111.5 55.2002C111.1 55.1002 110.7 55.1002 110.3 55.0002C110.1 54.1002 109.4 53.0002 109.7 52.2002C111.5 46.4002 113.3 40.6002 115.4 34.9002C115.8 33.9002 117.1 32.9002 118.1 32.7002C118.8 32.6002 120.3 33.7002 120.6 34.6002C122.9 40.9002 125 47.4002 127.2 53.9002ZM115.6 45.4002C118.4 45.8002 118.4 45.8002 120.1 44.5002C119.4 42.4002 118.7 40.3002 117.8 37.5002C117 40.6002 116.3 43.0002 115.6 45.4002Z" fill="#1622DA"/>
<path d="M57 53.7001C58.9 47.6001 60.7 41.6001 62.7 35.7001C63.1 34.5001 64.4 33.0001 65.5 32.7001C67.4 32.2001 68.4 33.9001 68.9 35.6001C70.8 41.5001 72.7 47.5001 74.6 53.4001C71.7 55.2001 71.7 55.2001 69.7 51.1001C64.4 48.7001 64 48.8001 60.6 53.6001C59.7 54.8001 58.7 55.4001 57 53.7001ZM68.1 45.9001C67.3 43.3001 66.7 41.1001 66 38.9001C65.7 38.9001 65.4 38.9001 65.1 38.9001C64.7 41.1001 64.2 43.3001 63.7 45.9001C65.5 45.9001 66.6 45.9001 68.1 45.9001Z" fill="#1622DA"/>
<path d="M169.3 37.2001C169.4 38.5001 169.5 39.8001 169.6 41.4001C172.1 41.8001 174.3 42.1001 177 42.5001C175.5 46.5001 172.2 44.5001 169.5 45.9001C169.4 47.0001 169.3 48.5001 169.1 50.4001C170.7 50.7001 171.9 50.9001 173.2 51.0001C174.3 51.2001 175.4 51.3001 176.4 51.4001C177.5 53.1001 177.3 54.4001 175.6 54.7001C172.4 55.2001 169.1 55.4001 165.5 54.3001C164.6 47.1001 165 40.2001 165.2 33.5001C170 31.6001 173.5 31.8001 177 33.8001C175.9 37.8001 172.2 35.3001 169.3 37.2001Z" fill="#1622DA"/>
<path d="M37.9 43.4999C37.9 45.4999 38.1 47.5 37.9 49.4C37.4 52.9 35.1 54.9 31.6 55.1999C27.8 55.4999 25 53.8999 24.4 50.0999C23.8 45.8999 23.7 41.6 24.1 37.4C24.4 33.9 27.5 31.9999 31.3 32.0999C34.8 32.1999 37.4 34.1999 37.9 37.5999C38.1 39.5999 37.8 41.5999 37.9 43.4999C37.8 43.4999 37.8 43.4999 37.9 43.4999ZM28.4 36.2999C26.8 41.4999 26.6 46.3999 28.6 51.1999C32.5 51.9 33.8 51.4999 34.1 48.4999C34.5 45.2999 34.5 41.9999 34.1 38.7999C33.9 35.7999 32.5 35.3999 28.4 36.2999Z" fill="#1622DA"/>
<path d="M81 41.7004C85.1 32.9004 85.1 32.9004 88.3 33.5004C87.3 36.0004 86.4 38.4004 85.3 40.7004C83.7 44.0004 82.5 47.3003 82.7 51.1003C82.8 52.7003 82.9 54.5004 80 54.7004C79.3 51.1004 78.9 47.4004 77.8 44.0003C76.7 40.6003 75 37.4004 73.6 34.0004C75.2 32.1004 76.6 32.4004 77.6 34.2004C78.8 36.4004 79.8 38.9004 81 41.7004Z" fill="#1622DA"/>
<path d="M103.9 62.1003C104.8 61.1003 105.6 60.2003 106.4 59.3003C106.7 59.4003 107 59.6003 107.2 59.7003C106.2 63.1003 105.2 66.5003 104.2 69.9003C103.9 69.9003 103.6 70.0003 103.4 70.0003C102.5 67.2003 101.7 64.4003 100.7 61.3003C98 64.1003 99.4 68.3003 95.6 70.4003C94.9 68.6003 94.4 67.2003 93.7 65.4003C92.8 67.0003 91.9 68.5003 90.7 70.6003C88 66.8003 87.6 63.3003 87.5 59.8003C87.9 59.7003 88.3 59.5003 88.7 59.4003C89.4 60.9003 90 62.4003 90.8 64.2003C91.6 62.4003 92.3 60.8003 93 59.3003C96.1 60.0003 95.3 62.5003 96.3 64.9003C97 62.9003 97.6 61.5003 98.1 59.9003C99.2 59.7003 100.3 59.6003 101.7 59.4003C102.5 60.1003 103.2 61.1003 103.9 62.1003Z" fill="#1622DA"/>
<path d="M121 69.8003C120.3 68.6003 119.7 67.4003 118.7 65.6003C117.9 67.3003 117.4 68.5003 116.5 70.4003C114.4 66.4003 115.7 63.1003 115.4 60.0003C118.1 58.3003 120.1 59.0003 122.1 60.6003C122.1 63.7003 122.1 66.6003 122.1 69.6003C121.7 69.7003 121.4 69.7003 121 69.8003Z" fill="#1622DA"/>
<path d="M87 69.8003C84.5 67.3003 82.1 67.8003 79.4 70.1003C79.5 65.6003 80.6 62.2003 83.2 58.8003C86.2 62.1003 86.8 65.6003 87 69.8003Z" fill="#1622DA"/>
<path d="M123.5 66.7002C125 67.1002 126.2 67.4002 127.5 67.7002C127.6 67.5002 127.7 67.3002 127.8 67.0002C126.8 66.2002 125.8 65.4002 124.9 64.6002C123.6 63.6002 122.8 62.2002 123.8 60.8002C124.4 59.9002 125.8 59.1002 126.9 58.9002C128.8 58.6002 129.9 59.8002 130 62.3002C128.6 62.0002 127.5 61.7002 126.3 61.4002C126.2 61.7002 126 62.2002 126.1 62.3002C126.9 63.1002 127.9 63.7002 128.7 64.5002C129.8 65.5002 131 66.9002 129.8 68.3002C129 69.2002 127.4 69.9002 126.1 69.9002C124.2 70.1002 123.2 68.9002 123.5 66.7002Z" fill="#1622DA"/>
<path d="M113.9 64.5C112.6 65.4 111.8 66.1 110.6 67C111.9 67.7 112.9 68.2 114.4 69C112.5 70.8 110.8 70.1 108.7 70C108.7 66.5 108.7 63.2 108.7 59.5C110.3 59.5 111.7 59.5 114.4 59.5C112.5 60.9 111.6 61.6 110.4 62.5C111.6 63.2 112.6 63.7 113.9 64.5Z" fill="#1622DA"/>
<path d="M75.1 67.1002C76.2 67.7002 77.2 68.2002 78.3 68.8002C77.9 69.3002 77.6 69.9002 77.3 69.9002C76 70.0002 74.8 69.9002 73.4 69.9002C72.2 66.2002 72.3 62.9002 73.3 59.7002C73.8 59.7002 74.2 59.7002 74.7 59.7002C74.8 62.0002 74.9 64.3002 75.1 67.1002Z" fill="#1622DA"/>
</g>
<defs>
<clipPath id="clip0">
<rect width="205.1" height="70.5" fill="white"/>
</clipPath>
</defs>
</svg>
