<svg width="136" height="85" viewBox="0 0 136 85" fill="none" xmlns="http://www.w3.org/2000/svg">
<g clip-path="url(#clip0)">
<path d="M100.3 0C104.2 12.6 116 42.5 118.4 45.6C118.8 45 119.3 44.6 119.5 44.1C124.8 29.6 130 15 135.4 0C123.5 0 112.1 0 100.3 0ZM71.3 66.3C71.1 66.4 70.8 66.4 70.6 66.5C70.6 71.9 70.6 77.4 70.6 83C73.9 80.8 73.9 80.8 76.7 81.6C78.8 82.2 80.7 83.1 82.8 83.6C96.6 86.7 102.9 76.9 102 66.1C101.6 61.3 99 57.8 94.2 56.1C92.2 55.4 90.1 54.8 88 54.2C85.6 53.5 83.2 53.1 80.8 52.2C76.9 50.8 75.7 48.6 76.3 44.6C76.8 41.5 79.3 39 82.6 38.5C87.6 37.7 91.4 39.7 94 43.9C95.3 46 96.1 48.4 97.1 50.6C97.4 51.2 97.9 51.7 98.5 52.6C99.5 47 99.4 39.3 98.2 38.4C97.4 39 96.5 39.6 95.5 40.4C93.7 39.6 91.9 38.7 90.1 38C83.8 35.5 75.9 37.3 72.5 42C66.9 49.8 70.1 60.2 79.3 63.3C81.5 64.1 83.8 64.5 86 65.2C87.7 65.7 89.5 66.3 91.1 67C94.7 68.5 95.7 71.5 95.3 75.1C95 78.6 93.2 80.9 89.8 82C85.3 83.5 80.2 82.1 77.1 77.8C75.3 75.3 74 72.4 72.6 69.6C72.2 68.6 71.8 67.4 71.3 66.3ZM39.1 81.2C37.1 76.1 35.2 71.2 33.3 66.3C31.4 61.2 29.5 56.1 27.5 51.1C25.6 46.4 24.2 41.4 21.3 36.4C20.6 38 20.2 38.8 19.8 39.7C15.6 51.3 11.3 62.9 7.2 74.5C6 77.8 4.8 81.1 0 82.8C4.9 82.8 8.6 82.8 13.2 82.8C10.9 81.8 9.5 81.2 7.6 80.4C10.3 70.8 14 61.8 17.4 51.7C19.3 57 20.8 61.4 22.4 65.7C21 66 19.8 66.3 18.5 66.6C18.5 66.8 18.5 67 18.6 67.1C20 67.3 21.5 67.5 23.1 67.8C24.7 72.3 26.3 76.7 27.9 81.3C26 81.7 24.6 82 23.2 82.2C29.5 83 35.8 83.2 42.1 82.2C41.2 81.9 40.3 81.6 39.1 81.2ZM59.1 39.9C60.6 39.5 62.1 39.1 63.5 38.8C60.2 37.2 56.9 37.6 53.7 37.7C50.5 37.8 47 36.7 43.2 38.8C45.5 39.3 47.1 39.6 48.5 39.9C49.2 55.1 48.8 80.7 48 81.5C46.7 81.7 45.3 82 43.2 82.4C48.6 83.3 60.4 83.3 64.9 82.3C62.5 81.9 61 81.7 59.2 81.4C59.1 67.5 59.1 53.7 59.1 39.9Z" fill="#FF0202"/>
<path d="M100.3 0C112.1 0 123.4 0 135.3 0C129.9 15 124.7 29.6 119.5 44.1C119.3 44.6 118.8 45.1 118.4 45.6C116 42.5 104.2 12.6 100.3 0Z" fill="#1622DA"/>
<path d="M71.3 66.3001C71.8 67.4001 72.2 68.6001 72.7 69.7001C74.1 72.5001 75.3 75.4001 77.2 77.9001C80.4 82.2001 85.4 83.6001 89.9 82.1001C93.3 81.0001 95 78.7001 95.4 75.2001C95.8 71.6001 94.8 68.6001 91.2 67.1001C89.5 66.4001 87.8 65.8001 86.1 65.3001C83.9 64.6001 81.6 64.1001 79.4 63.4001C70.3 60.3001 67 49.9001 72.6 42.1001C76 37.4001 83.8 35.5001 90.2 38.1001C92 38.8001 93.8 39.7001 95.6 40.5001C96.6 39.7001 97.5 39.1001 98.3 38.5001C99.5 39.4001 99.6 47.1001 98.6 52.7001C98 51.8001 97.5 51.3001 97.2 50.7001C96.1 48.5001 95.4 46.1001 94.1 44.0001C91.5 39.9001 87.7 37.9001 82.7 38.6001C79.5 39.1001 76.9 41.6001 76.4 44.7001C75.8 48.7001 77 50.9001 80.9 52.3001C83.2 53.1001 85.7 53.6001 88.1 54.3001C90.2 54.9001 92.2 55.5001 94.3 56.2001C99 57.9001 101.7 61.4001 102.1 66.2001C103 76.9001 96.7 86.7001 82.9 83.7001C80.8 83.2001 78.8 82.4001 76.8 81.7001C74 80.8001 74 80.9001 70.7 83.1001C70.7 77.5001 70.7 72.0001 70.7 66.6001C70.8 66.4001 71.1 66.3001 71.3 66.3001Z" fill="#1622DA"/>
<path d="M39.1 81.2C40.4 81.6 41.3 82 42.2 82.3C35.9 83.3 29.6 83 23.3 82.3C24.7 82 26.1 81.7 28 81.4C26.4 76.8 24.8 72.4 23.2 67.9C21.6 67.6 20.2 67.4 18.7 67.2C18.7 67 18.7 66.8 18.6 66.7C19.8 66.4 21.1 66.1 22.5 65.8C20.9 61.4 19.4 57.1 17.5 51.8C14 62 10.3 70.9 7.70001 80.5C9.60001 81.3 11 81.9 13.3 82.9C8.80001 82.9 5.10001 82.9 0.100006 82.9C4.90001 81.2 6.10001 77.9 7.30001 74.6C11.4 63 15.7 51.4 19.9 39.8C20.2 38.9 20.7 38 21.4 36.5C24.4 41.5 25.7 46.5 27.6 51.2C29.6 56.2 31.5 61.4 33.4 66.4C35.2 71.2 37.1 76.1 39.1 81.2Z" fill="#1622DA"/>
<path d="M59.1 39.9C59.1 53.7 59.1 67.4 59.1 81.4C60.9 81.7 62.5 81.9 64.8 82.3C60.3 83.3 48.5 83.4 43.1 82.4C45.3 82 46.6 81.7 47.9 81.5C48.7 80.7 49.1 55.1 48.4 39.9C46.9 39.6 45.4 39.3 43.1 38.8C46.9 36.7 50.4 37.8 53.6 37.7C56.8 37.6 60.1 37.2 63.4 38.8C62 39.2 60.6 39.5 59.1 39.9Z" fill="#1622DA"/>
</g>
<defs>
<clipPath id="clip0">
<rect width="135.4" height="84.1" fill="white"/>
</clipPath>
</defs>
</svg>
