<svg width="142" height="64" viewBox="0 0 142 64" fill="none" xmlns="http://www.w3.org/2000/svg">
<g clip-path="url(#clip0)">
<path d="M57.9 1.10038C62.1 1.10038 65.9 1.10038 70 1.10038C69.9 3.10038 69.7 4.80038 69.5 7.30038C70.9 6.40038 71.7 5.80038 72.6 5.40038C76.6 3.60038 80.5 0.900377 84.7 0.300377C95.7 -1.29962 104.1 7.60038 102.8 18.9004C100.7 38.6004 83.2 50.0004 66.2 45.5004C65.3 45.3004 64.3 45.3004 62.9 45.1004C61.4 51.3004 60 57.3004 58.6 63.6004C53.9 63.6004 49.5 63.6004 44.6 63.6004C49.2 42.8004 53.5 22.1004 57.9 1.10038ZM65.4 34.5004C72.2 38.3004 77.6 37.8004 81.6 32.6004C84.1 29.3004 85.8 25.2004 86.9 21.2004C88.3 16.0004 86.7 12.4004 83.5 10.9004C80.2 9.40038 75.6 10.7004 72.5 14.4004C71.1 16.0004 69.8 17.8004 69.2 19.8004C67.8 24.6004 66.7 29.5004 65.4 34.5004Z" fill="#1622DA"/>
<path d="M52.9 2.30023C50.2 16.9002 47.6 30.9002 44.9 45.3002C41.6 45.3002 37.6 45.3002 33.1 45.3002C33 43.0002 32.9 40.8002 32.7 37.6002C31 39.0002 29.8 40.0002 28.7 41.1002C25.2 44.4002 21.2 46.4002 16.3 46.5002C5.8 46.7002 -1.3 38.9002 0.199997 28.6002C2.1 15.2002 9.7 6.40023 22.5 2.20023C32.6 -0.999768 42.7 -0.499768 52.9 2.30023ZM37.1 10.3002C30.3 8.70023 25.2 10.6002 21.3 15.1002C17 19.9002 14.2 25.6002 16.2 32.3002C17.4 36.4002 21.7 37.6002 26 35.4002C29.9 33.3002 32 29.7002 33.2 25.8002C34.6 20.8002 35.7 15.8002 37.1 10.3002Z" fill="#1622DA"/>
<path d="M141.2 2.9001C140.2 5.3001 139.2 7.9001 138.2 10.5001C135.5 10.0001 133.3 9.3001 131 9.2001C128.7 9.1001 126.3 9.2001 124.2 9.9001C122.9 10.3001 121.5 11.9001 121.2 13.2001C121 14.2001 122.2 15.8001 123.2 16.7001C124.2 17.7001 125.8 18.1001 127.1 18.9001C129.3 20.1001 131.5 21.1001 133.6 22.5001C139.9 26.8001 140.8 33.8001 135.6 39.4001C134 41.2001 131.8 42.6001 129.7 43.7001C121.5 47.8001 108.8 47.4001 100.5 42.9001C101.5 40.3001 102.6 37.7001 103.7 34.9001C106.9 35.7001 109.7 36.7001 112.6 37.2001C115 37.6001 117.6 37.7001 120 37.1001C121.5 36.7001 123.4 35.1001 123.7 33.7001C124 32.4001 122.7 30.4001 121.6 29.2001C120.5 28.1001 118.8 27.5001 117.4 26.7001C115.8 25.8001 114.1 25.1001 112.6 24.1001C105 19.1001 104.6 11.8001 111.1 5.6001C116.4 0.500098 133 -2.2999 141.2 2.9001Z" fill="#1622DA"/>
</g>
<defs>
<clipPath id="clip0">
<rect width="141.2" height="63.7" fill="white"/>
</clipPath>
</defs>
</svg>
