<svg width="192" height="27" viewBox="0 0 192 27" fill="none" xmlns="http://www.w3.org/2000/svg">
<g clip-path="url(#clip0)">
<path d="M63 26.2002C59.7 27.1002 56.9 26.1002 54.6 23.3002C53.4 21.8002 52.2 20.2002 51 18.6002C49.8 17.0002 48.5 15.9002 46.5 17.0002C45.7 22.2002 45.8 22.8002 48.1 26.2002C45.6 26.2002 43.2 26.2002 41.2 26.2002C41.4 17.8002 42.6 9.7002 40.3 1.2002C43 1.2002 46.3 1.2002 49.5 1.2002C52.4 1.3002 55.2 1.9002 56.5 4.9002C57.7 7.8002 56.9 10.4002 54.9 12.7002C54.4 13.3002 53.9 13.9002 52.9 15.1002C56.3 18.8002 59.7 22.5002 63 26.2002ZM45.9 13.9002C48.6 14.4002 51.2 14.9002 51.9 12.4002C52.5 10.1002 52.4 7.2002 51.5 5.0002C50.8 3.1002 48.4 2.3002 45.9 3.5002C45.9 6.9002 45.9 10.2002 45.9 13.9002Z" fill="#1622DA"/>
<path d="M63 1.2002C64.8 1.2002 67.1 1.2002 69.2 1.2002C69.2 7.2002 68.8 13.2002 69.3 19.0002C69.7 23.3002 72.7 25.2002 76.7 24.1002C78.2 23.7002 80.4 22.3002 80.7 21.0002C81.9 14.6002 81.9 8.10019 80.6 1.4002C82.2 1.4002 84.2 1.4002 85.9 1.4002C85.6 3.7002 85.3 5.9002 85.2 8.1002C84.9 11.7002 85.1 15.4002 84.5 18.9002C83.6 24.4002 80.2 26.7002 73.7 26.5002C68.1 26.4002 65 23.7002 64.4 18.3002C64 14.7002 64.4 11.1002 64.2 7.5002C64.1 5.4002 63.5 3.4002 63 1.2002Z" fill="#1622DA"/>
<path d="M20.3 1.20021C22.9 1.20021 25.9 1.10021 28.9 1.20021C33.1 1.40021 35.3 3.10021 35.9 6.10021C36.6 9.50021 34.8 12.9002 31.3 14.5002C30.3 15.0002 29.1 15.1002 27.8 15.1002C30.5 12.7002 32.6 10.2002 31.3 6.50021C30.6 4.30021 28.9 3.10021 25.8 3.00021C25.9 10.9002 24.4 18.5002 26.9 26.2002C24.8 26.2002 22.4 26.2002 20.2 26.2002C21 17.9002 20.9 9.70021 20.3 1.20021Z" fill="#1622DA"/>
<path d="M113.2 21.3998C112.8 22.7998 112.5 24.0998 112 25.9998C106.9 26.7998 101.9 27.2998 97 25.1998C92.2 22.9998 89.2 17.9998 89.5 12.7998C89.9 7.39984 93.2 3.09984 98.4 1.39984C103.1 -0.100157 107.8 0.0998431 112.8 1.89984C112.8 3.39984 112.8 4.99984 112.8 7.39984C109.8 3.19984 106.1 1.99984 101.9 2.89984C100.1 3.29984 98.1 4.39984 96.9 5.69984C93.5 9.59984 94.3 17.3998 98.1 21.1998C102.2 25.2998 107.9 25.2998 113.2 21.3998Z" fill="#1622DA"/>
<path d="M130.8 15.1999C128.3 14.6999 126.2 14.2999 123.6 13.6999C123.6 17.2999 123.6 20.0999 123.6 22.9999C126.6 25.0999 129.3 23.8999 132.4 21.8999C131.9 23.6999 131.7 24.8999 131.3 26.1999C126.5 26.1999 122.1 26.1999 117.7 26.1999C119 17.8999 119.5 9.7999 117.5 1.3999C121.5 1.3999 126 1.3999 131 1.3999C131.1 2.1999 131.1 3.1999 131.2 4.2999C128.7 3.9999 126.3 3.5999 123.6 3.2999C123.6 6.1999 123.6 8.5999 123.6 11.3999C125.9 11.4999 128 11.5999 130.5 11.6999C130.7 12.8999 130.7 14.0999 130.8 15.1999Z" fill="#1622DA"/>
<path d="M12.8 0.900014C12.8 3.00001 12.8 4.20001 12.8 5.50001C12.5 5.70001 12.2 5.90001 11.9 6.10001C11.4 5.30001 11.1 4.30001 10.3 3.70001C8.6 2.30001 6.6 2.30001 4.9 3.90001C3 5.80001 4.3 7.60001 5.8 9.00001C7.1 10.2 8.7 11.2 10 12.5C13.5 15.6 14.6 18.9 13.2 22.1C11.8 25.4 9.2 26.8 4.2 26.6C2.9 26.6 1.6 26.3 0 26.1C0 24.2 0 22.5 0 21.6C1.8 22.5 3.7 24.2 5.7 24.4C9.1 24.8 10.7 21.7 8.8 18.7C8.1 17.6 7 16.8 6 15.9C4.6 14.5 2.9 13.3 1.7 11.8C-1.5 7.40001 0.2 2.40001 5.5 1.00001C7.6 0.500014 10 0.900014 12.8 0.900014Z" fill="#1622DA"/>
<path d="M149 1.60013C157.1 0.700125 158.7 2.20013 156.5 8.20013C158.3 10.0001 160.7 11.9001 159 14.8001C156.7 18.7001 152.8 17.6001 149.1 17.5001C149 12.0001 149 6.80013 149 1.60013Z" fill="#1622DA"/>
<path d="M185.6 10.4998C187.7 12.7998 189.5 14.8998 191.6 17.1998C186.3 18.7998 185.5 12.5998 181.3 11.1998C181.2 13.4998 181.1 15.1998 181 17.1998C180.1 17.1998 179 17.1998 177.8 17.1998C177.8 12.0998 177.8 6.99977 177.8 1.49977C181.1 1.29977 184.4 0.0997713 187 2.99977C189.4 5.49977 187.3 7.79977 185.6 10.4998Z" fill="#1622DA"/>
<path d="M168.5 12.7C167.4 12.7 166.1 12.7 164.4 12.7C163.9 14.1 163.3 15.6 162.6 17.3C161.9 17.3 161 17.3 159.9 17.3C162.2 11.8 164.5 6.4 167.2 0C169.9 6.5 172.1 11.7 174.3 17.1C170.1 18.9 170.6 14.7 168.5 12.7Z" fill="#1622DA"/>
<path d="M191.8 26.1998C177.4 26.1998 162.9 26.1998 148.2 26.1998C151.3 24.7998 184 24.3998 191.8 26.1998Z" fill="#1622DA"/>
</g>
<defs>
<clipPath id="clip0">
<rect width="191.8" height="26.7" fill="white"/>
</clipPath>
</defs>
</svg>
