<svg width="122" height="65" viewBox="0 0 122 65" fill="none" xmlns="http://www.w3.org/2000/svg">
<g clip-path="url(#clip0)">
<path d="M39.4 55.5C34.5 50.4 29.6 45.3 24.7 40.3C24.4 40.5 24.1 40.6 23.7 40.8C23.7 48.1 23.7 55.3 23.7 62.9C15.6 62.9 7.89999 62.9 -0.100006 62.9C-6.10203e-06 42.2 -6.10203e-06 21.3 -6.10203e-06 0.1C7.59999 0.1 15.3 0.1 23.3 0.1C23.3 7 23.3 13.8 23.3 20.2C30.4 13.5 37.6 6.7 44.7 0C60.3 0 75.5 0 91.4 0C101.5 20.6 111.6 41.6 122 62.9C113.5 62.9 105.3 62.9 96.6 62.9C95.1 60 93.4 56.6 91.6 53.1C83.5 53.1 75.4 53.1 67.3 53.1C66.4 51.7 65.4 50.4 64.4 49C62.4 50.1 61 50.8 59.2 51.7C57.9 50 56.7 48.4 55.5 46.8C56.3 46 56.8 45.5 57.2 45C62.3 39.7 61 34.9 53.8 32.8C52.9 32.5 51.9 32.5 50.9 32.3C53.3 27.2 55.8 22.1 58.2 17C57.9 16.8 57.7 16.6 57.4 16.4C52.6 20.9 47.8 25.3 42.9 29.8C44.3 31.3 45.4 32.4 46.4 33.4C42.7 37.5 42.4 41.7 46 45.9C40.6 50.2 40.3 50.6 39.4 55.5ZM79 24.4C76.9 29.2 75.3 33.1 73.5 37.2C77.3 37.2 80.7 37.2 84.5 37.2C82.7 33 81.1 29.1 79 24.4Z" fill="#1622DA"/>
<path d="M51.1 32.3999C52.1 32.5999 53.1 32.5999 54 32.8999C61.2 34.9999 62.5 39.6999 57.4 45.0999C56.9 45.5999 56.5 45.9999 55.7 46.8999C56.9 48.4999 58.1 50.0999 59.4 51.7999C61.2 50.8999 62.6 50.0999 64.6 49.0999C65.6 50.4999 66.5 51.8999 67.5 53.1999C66.6 54.2999 65.6 55.4999 64.6 56.7999C66.6 58.9999 68.5 61.1999 70.4 63.2999C70.2 63.6999 70.1 64.0999 69.9 64.3999C67.3 63.8999 64.7 63.2999 62.1 62.8999C60.6 62.6999 59 62.7999 57.4 62.9999C54.7 63.2999 51.9 64.2999 49.2 64.1999C43.8 64.0999 40.8 61.1999 39.5 55.4999C40.4 50.5999 40.6 50.1999 46.2 45.9999C42.6 41.7999 42.9 37.5999 46.6 33.4999C48 33.1999 49.5 32.7999 51.1 32.3999ZM55.7 56.2999C53.8 54.0999 52.2 52.2999 49.8 49.6999C48.2 51.7999 46.5 53.3999 45.7 55.3999C45.4 56.0999 47.2 58.0999 48.5 58.6999C51.3 60.0999 53.5 58.5999 55.7 56.2999ZM55.6 39.6999C53.7 38.6999 52.8 37.6999 51.8 37.6999C51 37.6999 49.6 39.1999 49.8 39.6999C50.1 40.6999 51.2 42.0999 52 42.1999C52.8 42.2999 53.8 40.9999 55.6 39.6999Z" fill="#1F95FF"/>
<path d="M55.7 56.3002C53.4 58.7002 51.3 60.1002 48.5 58.7002C47.2 58.1002 45.4 56.0002 45.7 55.4002C46.5 53.4002 48.2 51.8002 49.8 49.7002C52.2 52.3002 53.8 54.1002 55.7 56.3002Z" fill="#1622DA"/>
<path d="M55.6 39.7002C53.8 41.0002 52.8 42.3002 52 42.2002C51.1 42.1002 50.1 40.7002 49.8 39.7002C49.7 39.2002 51.1 37.7002 51.8 37.7002C52.7 37.7002 53.7 38.7002 55.6 39.7002Z" fill="#1622DA"/>
</g>
<defs>
<clipPath id="clip0">
<rect width="122" height="64.3" fill="white"/>
</clipPath>
</defs>
</svg>
