<svg width="136" height="61" viewBox="0 0 136 61" fill="none" xmlns="http://www.w3.org/2000/svg">
<g clip-path="url(#clip0)">
<path d="M25.1 34.3C16.6 25.7 8.5 17.7 0 9.2C10.9 6.2 21.9 3.3 34.2 0C31 12.3 28 23.3 25.1 34.3ZM24.3 9.9C20.1 11 16.4 12 12.9 13C15.8 15.9 18.4 18.6 21.2 21.4C22.2 17.9 23.2 14.3 24.3 9.9Z" fill="#1622DA"/>
<path d="M91.5 17.5C87.4 13.8 84.2 16.8 81 17.8C80.1 13.3 80.3 12.5 84 11.4C86 10.8 88.2 10.5 90.3 10.5C96.1 10.5 98.3 12.8 98.4 18.7C98.5 20.8 98.4 23 98.9 25C99.6 26.4 101.2 28.4 100.8 29.2C100.1 30.4 97.8 31.7 96.4 31.5C92.6 31 89 31.5 85.2 31.7C82.4 31.9 80.4 30.5 79.6 27.8C78.8 25.2 79.7 22.8 82.7 21.3C85.4 19.9 88.2 19 91.5 17.5Z" fill="#1622DA"/>
<path d="M78.4 22.6002C73.5 22.6002 69.3 22.6002 64.9 22.6002C65.9 27.8002 67.4 28.1002 77.2 25.2002C77.3 26.5002 77.4 27.7002 77.5 28.8002C76.9 29.3002 76.6 29.7002 76.2 30.0002C72.4 32.3002 68.3 32.3002 64.2 31.5002C59.7 30.6002 56.6 26.1002 56.6 21.1002C56.6 16.0002 60 11.8002 64.9 10.7002C70.1 9.60022 75 11.8002 76.9 16.3002C77.7 18.0002 77.8 20.0002 78.4 22.6002Z" fill="#1622DA"/>
<path d="M133.1 25.2998C133.2 26.5998 133.3 27.7998 133.3 28.8998C132.7 29.3998 132.4 29.7998 132 30.0998C128.4 32.2998 124.4 32.1998 120.4 31.4998C115.9 30.6998 113.1 26.7998 112.9 21.7998C112.7 16.0998 115.2 12.2998 120.2 10.8998C125 9.49985 130.1 11.1998 132.3 15.1998C133.4 17.0998 133.8 19.3998 134.8 22.3998C129.5 22.3998 125.2 22.3998 120.7 22.3998C122 27.6998 123.2 27.8998 133.1 25.2998Z" fill="#1622DA"/>
<path d="M61.9 40.9C61.9 43.5 61.9 45.8 61.9 48.4C63.6 48.5 65.2 48.7 66.9 48.8C67.8 51.3 67.2 52.8 64.4 53.3C58.7 54.3 56 52.2 55.6 46.3C55.5 44.5 55.6 42.7 55.6 40.4C53.9 41 52.8 41.6 51.6 41.7C47 42.1 46.1 42.9 45.8 47.5C45.7 49.1 45.6 50.7 45.6 52.8C43.8 52.9 42.2 53 40.8 53.1C39.4 49.2 39.3 42.2 40.3 36.5C42.3 36.1 44.5 34.9 46.2 38.1C48.6 35.5 51.5 35.3 55.9 37.8C57.3 35.6 58.7 33.3 60.2 31C60.5 31.2 60.8 31.4 61.2 31.7C61.5 32.9 61.8 34.1 62.1 35.6C63.5 35.9 65.1 36.2 66.9 36.5C66.9 37.7 66.9 38.7 66.9 39.9C65.2 40.4 63.8 40.6 61.9 40.9Z" fill="#1622DA"/>
<path d="M122 40.7999C120.8 41.3999 120.2 41.9999 119.5 41.9999C115.4 42.0999 114.2 42.9999 113.7 46.7999C113.4 48.6999 113.5 50.6999 113.3 52.9999C111.7 53.1999 110.3 53.2999 108.4 53.4999C108.4 47.7999 108.4 42.4999 108.4 37.1999C111.8 36.0999 111.8 36.0999 114 38.1999C118.3 35.5999 118.5 35.5999 122.9 37.8999C126.2 35.7999 129.7 35.3999 133.2 37.0999C134 37.4999 134.1 39.3999 134.7 40.9999C132 40.6999 130.1 40.4999 128.2 40.2999C128.1 40.5999 128 40.8999 127.8 41.1999C129.3 41.9999 130.8 42.6999 132.3 43.4999C134.6 44.6999 135.6 46.5999 135.2 49.1999C134.8 51.8999 133 53.1999 130.5 53.4999C128.7 53.6999 126.8 53.6999 125.1 53.3999C122.5 52.9999 121.4 51.3999 122.7 48.7999C124.9 48.9999 126.9 49.0999 129.9 49.3999C127 45.6999 121.1 46.0999 122 40.7999Z" fill="#1622DA"/>
<path d="M1.8 36.6001C5.4 36.4001 8.3 36.1001 11.2 36.0001C16 35.9001 19.4 39.4001 19.6 44.5001C19.8 49.5001 16.5 53.3001 11.8 53.5001C10.5 53.6001 9.2 53.5001 7.5 53.5001C7.4 54.6001 7.3 55.8001 7.2 57.1001C7.1 58.2001 7 59.4001 6.9 60.9001C5.3 60.9001 3.8 60.9001 1.9 60.9001C1.8 52.8001 1.8 44.8001 1.8 36.6001ZM7.3 47.5001C9.2 49.3001 11.3 49.1001 12.3 47.1001C13 45.8001 13 43.5001 12.3 42.2001C11.3 40.1001 9.3 39.9001 7.3 41.9001C7.3 43.7001 7.3 45.6001 7.3 47.5001Z" fill="#1622DA"/>
<path d="M41.4 11C42.1 12.6 42.9 14 43.5 15.5C44.1 16.8 44.6 18.2 45.5 20.4C47.1 16.8 48.4 13.9 49.6 11.1C51.9 11.1 53.9 11.1 56.8 11.1C53.8 18.2 51.1 24.7 48.2 31.4C46.8 31.5 45.3 31.6 43.5 31.8C40.5 25 37.5 18.3 34.2 11C37.1 11 39.2 11 41.4 11Z" fill="#1622DA"/>
<path d="M105.1 46C101.6 46.2 98.4 46.4 95 46.5C97 49.8 97.6 49.9 104.8 48.1C105.3 51.8 104.1 53 99.6 53.4C92.7 54 88.6 51.2 88.3 45.4C87.9 39.6 91.3 36 97.2 36C102.7 36 105.5 39.2 105.1 46Z" fill="#1622DA"/>
<path d="M38.5 51.2002C38.2 51.6002 38 52.1002 37.6 52.3002C36 53.2002 24.5 54.0002 23.2 53.0002C22 52.1002 20.7 50.4002 20.7 49.2002C20.8 47.7002 21.9 45.8002 23.2 44.9002C25.1 43.5002 27.5 42.8002 30.1 41.7002C27 39.4002 24.7 41.1002 21.5 42.2002C21.9 40.4002 21.6 38.3002 22.5 37.7002C25.7 35.4002 29.4 35.6002 33 36.7002C35.9 37.6002 36 40.3002 36.1 42.8002C36.2 45.7002 35.2 48.9002 39.5 50.5002C39.1 50.7002 38.8 50.9002 38.5 51.2002Z" fill="#1622DA"/>
<path d="M103.5 1.7998C105.7 1.7998 107.6 1.7998 109.9 1.7998C109.9 11.6998 109.9 21.2998 109.9 31.1998C107.7 31.1998 105.8 31.1998 103.5 31.1998C103.5 21.5998 103.5 11.9998 103.5 1.7998Z" fill="#1622DA"/>
<path d="M78.5 40.1C72.2 43.1 76.2 48.8 74 52.9C72.8 52.9 71.2 52.9 69.4 52.9C69.4 47.5 69.4 42.3 69.4 36.6C73.4 36.5 77.4 36.1 81.4 36.2C83.8 36.3 85.4 38 85.6 40.4C86 44.4 86.1 48.5 86.3 53C84 53.1 82.4 53.2 80.9 53.2C79 49 81.6 44.4 78.5 40.1Z" fill="#1622DA"/>
</g>
<defs>
<clipPath id="clip0">
<rect width="135.3" height="60.9" fill="white"/>
</clipPath>
</defs>
</svg>
